# Blender 4.5.1 LTS
# www.blender.org
mtllib l_corridor.mtl
o Plane
v -4.000000 2.396575 4.000000
v 4.000000 2.396575 4.000000
v -4.000000 2.396574 -4.000000
v 4.000000 2.396574 -4.000000
v -4.000000 2.396576 7.600000
v 4.000000 2.396576 7.600000
v 7.600000 2.396575 4.000000
v 7.600000 2.396574 -4.000000
v -4.000000 2.396575 -1.866668
v -4.000000 2.396575 1.866668
v 4.000000 -0.003425 1.866668
v 4.000000 -0.003425 -1.866668
v 7.600000 -0.003425 1.866668
v 7.600000 -0.003425 -1.866668
v -1.866668 -0.003425 4.000000
v 1.866668 -0.003425 4.000000
v 1.866668 2.396575 -4.000000
v -1.866668 2.396575 -4.000000
v -1.866668 -0.003424 7.600000
v 1.866668 -0.003424 7.600000
v 1.866668 -0.003425 1.866668
v -1.866668 -0.003425 1.866668
v 1.866668 -0.003425 -1.866668
v -1.866668 -0.003425 -1.866668
v 4.000000 -0.003425 0.995556
v 4.000000 -0.003425 -0.995556
v 7.600000 -0.003425 0.995556
v 7.600000 -0.003425 -0.995556
v 1.866668 -0.003425 0.995556
v 1.866668 -0.003425 -0.995556
v -0.995556 -0.003425 4.000000
v 0.995556 -0.003425 4.000000
v -0.995556 -0.003424 7.600000
v 0.995556 -0.003424 7.600000
v 0.995556 -0.003425 1.866668
v -0.995556 -0.003425 1.866668
v 0.995556 -0.003425 0.995556
v -0.995556 -0.003425 0.995556
v 0.995556 -0.003425 -0.995556
v -0.995556 -0.003425 -0.995556
v -4.000000 3.180995 4.000000
v 4.000000 3.180995 4.000000
v -4.000000 3.180990 -4.000000
v 4.000000 3.180994 -4.000000
v -4.000000 3.180995 7.599999
v 4.000000 3.180995 7.599999
v 7.600000 3.180995 4.000000
v 7.600000 3.180994 -4.000000
v 7.600000 3.180995 1.866668
v 7.600000 3.180995 -1.866668
v -1.866668 3.180995 7.599999
v 1.866668 3.180995 7.599999
v 7.600000 3.180995 0.995556
v 7.600000 3.180995 -0.995556
v -0.995556 3.180995 7.599999
v 0.995556 3.180995 7.599999
v -4.000000 7.580997 4.000000
v 4.000000 7.580997 4.000000
v -4.000000 7.580998 -4.000000
v 4.000000 7.580995 -4.000000
v -4.000000 7.580997 7.599998
v 4.000000 7.580997 7.599998
v 7.600000 7.580997 4.000000
v 7.600000 7.580995 -4.000000
v 7.600000 7.580995 1.866667
v 7.600000 7.580995 -1.866669
v -1.866668 7.580997 7.599998
v 1.866668 7.580997 7.599998
v 7.600000 7.580995 0.995555
v 7.600000 7.580995 -0.995557
v -0.995556 7.580997 7.599998
v 0.995556 7.580997 7.599998
v 8.000000 -0.003425 0.995556
v 8.000000 -0.003425 -0.995556
v 8.000000 3.180995 0.995556
v 8.000000 3.180995 -0.995556
v -0.995556 -0.003422 8.000000
v 0.995556 -0.003422 8.000000
v -0.995556 3.180996 8.000000
v 0.995556 3.180996 8.000000
v -4.000000 3.180990 -1.866668
v -4.000000 3.180990 1.866668
v 1.866668 3.180990 -4.000000
v -1.866668 3.180990 -4.000000
v -4.000000 7.581000 -1.866669
v -4.000000 7.581000 1.866667
v 1.866668 7.580998 -4.000000
v -1.866668 7.580998 -4.000000
vn -0.0000 0.6644 0.7474
vn 0.7474 0.6644 -0.0000
vn -0.0000 0.6644 -0.7474
vn -0.0000 1.0000 -0.0000
vn -0.7474 0.6644 -0.0000
vn 1.0000 -0.0000 -0.0000
vn -0.0000 -0.0000 -1.0000
vn -1.0000 -0.0000 -0.0000
vn -0.0000 -0.0000 1.0000
vn -0.0000 -1.0000 -0.0000
vt 0.333333 1.000000
vt 0.000000 1.000000
vt 0.333333 0.666667
vt 0.333333 0.000000
vt 0.000000 0.000000
vt 1.000000 0.333333
vt 1.000000 0.000000
vt 1.000000 1.000000
vt 1.000000 0.666667
vt 1.000000 0.444444
vt 0.000000 0.666667
vt 0.666667 0.555556
vt 1.000000 0.555556
vt 0.666667 0.666667
vt 0.666667 1.000000
vt 0.555556 0.000000
vt 0.666667 0.000000
vt 0.666667 0.333333
vt 0.555555 0.333333
vt 0.444444 0.000000
vt 0.555555 0.444444
vt 0.666667 0.444444
vt 0.444444 0.444444
vt 0.444444 0.333333
vt 0.000000 0.333333
vt 0.555555 0.555556
vt 0.444444 0.555556
vt 0.333333 0.333333
s 1
f 18/1/1 3/2/1 24/3/1
f 15/4/2 1/5/2 5/5/2 19/4/2
f 11/6/3 2/7/3 7/7/3 13/6/3
f 4/8/1 12/9/1 14/9/1 8/8/1
f 25/10/4 11/6/4 13/6/4 27/10/4
f 9/11/2 24/3/2 3/2/2
f 30/12/4 26/13/4 12/9/4 23/14/4
f 23/14/1 12/9/1 4/8/1 17/15/1
f 32/16/4 16/17/4 21/18/4 35/19/4
f 2/7/5 16/17/5 20/17/5 6/7/5
f 31/20/4 15/4/4 19/4/4 33/20/4
f 11/6/3 21/18/3 2/7/3
f 2/7/5 21/18/5 16/17/5
f 37/21/4 35/19/4 21/18/4 29/22/4
f 38/23/4 36/24/4 35/19/4 37/21/4
f 10/25/6 9/11/6 81/11/6 82/25/6
f 21/18/4 11/6/4 25/10/4 29/22/4
f 29/22/4 25/10/4 26/13/4 30/12/4
f 12/9/4 26/13/4 28/13/4 14/9/4
f 26/13/4 25/10/4 27/10/4 28/13/4
f 37/21/4 29/22/4 30/12/4 39/26/4
f 38/23/4 37/21/4 39/26/4 40/27/4
f 23/14/4 39/26/4 30/12/4
f 36/24/4 38/23/4 22/28/4
f 24/3/2 9/11/2 10/25/2 22/28/2
f 16/17/4 32/16/4 34/16/4 20/17/4
f 32/16/4 31/20/4 33/20/4 34/16/4
f 15/4/4 31/20/4 36/24/4 22/28/4
f 31/20/4 32/16/4 35/19/4 36/24/4
f 24/3/4 22/28/4 38/23/4 40/27/4
f 40/27/4 39/26/4 23/14/4 24/3/4
f 33/20/7 19/4/7 51/4/7 55/20/7
f 6/7/7 20/17/7 52/17/7 46/7/7
f 19/4/7 5/5/7 45/5/7 51/4/7
f 2/7/8 6/7/8 46/7/8 42/7/8
f 20/17/7 34/16/7 56/16/7 52/17/7
f 27/10/8 13/6/8 49/6/8 53/10/8
f 13/6/8 7/7/8 47/7/8 49/6/8
f 5/5/6 1/5/6 41/5/6 45/5/6
f 14/9/8 28/13/8 54/13/8 50/9/8
f 8/8/8 14/9/8 50/9/8 48/8/8
f 4/8/9 8/8/9 48/8/9 44/8/9
f 7/7/7 2/7/7 42/7/7 47/7/7
f 46/7/7 52/17/7 68/17/7 62/7/7
f 49/6/8 47/7/8 63/7/8 65/6/8
f 50/9/8 54/13/8 70/13/8 66/9/8
f 51/4/7 45/5/7 61/5/7 67/4/7
f 52/17/7 56/16/7 72/16/7 68/17/7
f 42/7/8 46/7/8 62/7/8 58/7/8
f 45/5/6 41/5/6 57/5/6 61/5/6
f 48/8/8 50/9/8 66/9/8 64/8/8
f 44/8/9 48/8/9 64/8/9 60/8/9
f 53/10/8 49/6/8 65/6/8 69/10/8
f 47/7/7 42/7/7 58/7/7 63/7/7
f 54/13/8 53/10/8 69/10/8 70/13/8
f 55/20/7 51/4/7 67/4/7 71/20/7
f 56/16/7 55/20/7 71/20/7 72/16/7
f 28/13/4 27/10/4 73/10/4 74/13/4
f 27/10/7 53/10/7 75/10/7 73/10/7
f 54/13/9 28/13/9 74/13/9 76/13/9
f 53/10/10 54/13/10 76/13/10 75/10/10
f 34/16/4 33/20/4 77/20/4 78/16/4
f 33/20/6 55/20/6 79/20/6 77/20/6
f 55/20/10 56/16/10 80/16/10 79/20/10
f 56/16/8 34/16/8 78/16/8 80/16/8
f 23/14/1 17/15/1 18/1/1 24/3/1
f 82/25/6 81/11/6 85/11/6 86/25/6
f 17/15/9 83/15/9 84/1/9 18/1/9
f 17/15/9 4/8/9 44/8/9 83/15/9
f 60/8/9 87/15/9 83/15/9 44/8/9
f 59/5/9 43/5/9 84/1/9 88/1/9
f 18/1/9 84/1/9 43/5/9 3/2/9
f 9/11/6 3/2/6 43/5/6 81/11/6
f 59/5/6 85/11/6 81/11/6 43/5/6
f 10/25/6 82/25/6 41/5/6 1/5/6
f 41/5/6 82/25/6 86/25/6 57/5/6
f 15/4/2 22/28/2 10/25/2 1/5/2
f 84/1/9 83/15/9 87/15/9 88/1/9
