# Blender 4.5.1 LTS
# www.blender.org
mtllib l_room.mtl
o Plane
v -4.000000 2.396575 4.000000
v 4.000000 2.396575 4.000000
v 4.000000 2.396574 -4.000000
v -4.000000 2.396576 7.600000
v 4.000000 2.396576 7.600000
v 7.600000 2.396575 4.000000
v 7.600000 2.396574 -4.000000
v 4.000000 -0.003425 1.866668
v 4.000000 -0.003425 -1.866668
v 7.600000 -0.003425 1.866668
v 7.600000 -0.003425 -1.866668
v -1.866668 -0.003425 4.000000
v 1.866668 -0.003425 4.000000
v -1.866668 -0.003423 7.600000
v 1.866668 -0.003423 7.600000
v 1.866668 -0.003425 1.866668
v 4.000000 -0.003425 0.995556
v 4.000000 -0.003425 -0.995556
v 7.600000 -0.003425 0.995556
v 7.600000 -0.003425 -0.995556
v 1.866668 -0.003425 0.995556
v -0.995556 -0.003425 4.000000
v 0.995556 -0.003425 4.000000
v -0.995556 -0.003423 7.600000
v 0.995556 -0.003423 7.600000
v 0.995556 -0.003425 1.866668
v -4.000000 3.180995 4.000000
v 4.000000 3.180995 4.000000
v 4.000000 3.180994 -4.000000
v -4.000000 3.180995 7.599998
v 4.000000 3.180995 7.599998
v 7.600000 3.180995 4.000000
v 7.600000 3.180994 -4.000000
v 7.600000 3.180995 1.866668
v 7.600000 3.180995 -1.866668
v -1.866668 3.180995 7.599998
v 1.866668 3.180995 7.599998
v 7.600000 3.180995 0.995556
v 7.600000 3.180995 -0.995556
v -0.995556 3.180995 7.599998
v 0.995556 3.180995 7.599998
v -4.000000 7.580997 4.000000
v 4.000000 7.580997 4.000000
v 4.000000 7.580995 -4.000000
v -4.000000 7.580997 7.599998
v 4.000000 7.580997 7.599998
v 7.600000 7.580997 4.000000
v 7.600000 7.580995 -4.000000
v 7.600000 7.580995 1.866666
v 7.600000 7.580995 -1.866670
v -1.866668 7.580997 7.599998
v 1.866668 7.580997 7.599998
v 7.600000 7.580995 0.995554
v 7.600000 7.580995 -0.995558
v -0.995556 7.580997 7.599998
v 0.995556 7.580997 7.599998
v 8.000000 -0.003425 0.995556
v 8.000000 -0.003425 -0.995556
v 8.000000 3.180995 0.995556
v 8.000000 3.180995 -0.995556
v -0.995556 -0.003421 8.000000
v 0.995556 -0.003421 8.000000
v -0.995556 3.180997 8.000000
v 0.995556 3.180997 8.000000
v -4.000000 -0.003424 4.000000
v 4.000000 -0.003426 -4.000000
v -9.000000 2.396575 -1.000000
v -1.000000 2.396574 -9.000000
v -9.000000 3.180995 -1.000000
v -1.000000 3.180994 -9.000000
v -9.000000 7.580997 -1.000001
v -1.000000 7.580995 -9.000001
v -9.000000 -0.003424 -1.000000
v -1.000000 -0.003426 -9.000000
vn 0.7474 0.6644 -0.0000
vn -0.0000 0.6644 -0.7474
vn -0.0000 0.6644 0.7474
vn -0.0000 1.0000 -0.0000
vn -0.7474 0.6644 -0.0000
vn -0.0000 -0.0000 -1.0000
vn -1.0000 -0.0000 -0.0000
vn 1.0000 -0.0000 -0.0000
vn -0.0000 -0.0000 1.0000
vn -0.0000 -1.0000 -0.0000
vn -0.7071 -0.0000 0.7071
vn 0.7071 -0.0000 -0.7071
vn 0.7071 -0.0000 0.7071
vt 0.333333 0.000000
vt 0.000000 0.000000
vt 1.000000 0.333333
vt 1.000000 0.000000
vt 1.000000 1.000000
vt 1.000000 0.666667
vt 1.000000 0.444444
vt 0.555556 0.000000
vt 0.666667 0.000000
vt 0.666667 0.333333
vt 0.555555 0.333333
vt 0.444444 0.000000
vt 0.666667 0.444444
vt 1.000000 0.555556
s 0
f 12/1/1 1/2/1 4/2/1 14/1/1
f 8/3/2 2/4/2 6/4/2 10/3/2
f 3/5/3 9/6/3 11/6/3 7/5/3
f 17/7/4 8/3/4 10/3/4 19/7/4
f 23/8/4 13/9/4 16/10/4 26/11/4
f 2/4/5 13/9/5 15/9/5 5/4/5
f 22/12/4 12/1/4 14/1/4 24/12/4
f 8/3/2 16/10/2 2/4/2
f 2/4/5 16/10/5 13/9/5
f 21/13/4 17/7/4 18/14/4
f 16/10/4 8/3/4 17/7/4 21/13/4
f 26/11/4 16/10/4 21/13/4
f 9/6/4 18/14/4 20/14/4 11/6/4
f 18/14/4 17/7/4 19/7/4 20/14/4
f 18/14/4 9/6/4 21/13/4
f 13/9/4 23/8/4 25/8/4 15/9/4
f 23/8/4 22/12/4 24/12/4 25/8/4
f 23/8/4 26/11/4 22/12/4
f 24/12/6 14/1/6 36/1/6 40/12/6
f 5/4/6 15/9/6 37/9/6 31/4/6
f 14/1/6 4/2/6 30/2/6 36/1/6
f 2/4/7 5/4/7 31/4/7 28/4/7
f 15/9/6 25/8/6 41/8/6 37/9/6
f 19/7/7 10/3/7 34/3/7 38/7/7
f 10/3/7 6/4/7 32/4/7 34/3/7
f 4/2/8 1/2/8 27/2/8 30/2/8
f 11/6/7 20/14/7 39/14/7 35/6/7
f 7/5/7 11/6/7 35/6/7 33/5/7
f 3/5/9 7/5/9 33/5/9 29/5/9
f 6/4/6 2/4/6 28/4/6 32/4/6
f 31/4/6 37/9/6 52/9/6 46/4/6
f 34/3/7 32/4/7 47/4/7 49/3/7
f 35/6/7 39/14/7 54/14/7 50/6/7
f 36/1/6 30/2/6 45/2/6 51/1/6
f 37/9/6 41/8/6 56/8/6 52/9/6
f 28/4/7 31/4/7 46/4/7 43/4/7
f 30/2/8 27/2/8 42/2/8 45/2/8
f 33/5/7 35/6/7 50/6/7 48/5/7
f 29/5/9 33/5/9 48/5/9 44/5/9
f 38/7/7 34/3/7 49/3/7 53/7/7
f 32/4/6 28/4/6 43/4/6 47/4/6
f 39/14/7 38/7/7 53/7/7 54/14/7
f 40/12/6 36/1/6 51/1/6 55/12/6
f 41/8/6 40/12/6 55/12/6 56/8/6
f 20/14/4 19/7/4 57/7/4 58/14/4
f 19/7/6 38/7/6 59/7/6 57/7/6
f 39/14/9 20/14/9 58/14/9 60/14/9
f 38/7/10 39/14/10 60/14/10 59/7/10
f 25/8/4 24/12/4 61/12/4 62/8/4
f 24/12/8 40/12/8 63/12/8 61/12/8
f 40/12/10 41/8/10 64/8/10 63/12/10
f 41/8/7 25/8/7 62/8/7 64/8/7
f 22/12/4 26/11/4 12/1/4
f 21/13/4 9/6/4 12/1/4 26/11/4
f 12/1/6 65/2/6 1/2/6
f 9/6/7 3/5/7 66/2/7
f 9/6/4 66/2/4 65/2/4 12/1/4
f 3/5/11 29/5/11 70/5/11 68/5/11
f 66/2/11 3/5/11 68/5/11 74/2/11
f 65/2/4 66/2/4 74/2/4 73/2/4
f 29/5/11 44/5/11 72/5/11 70/5/11
f 1/2/12 65/2/12 73/2/12 67/2/12
f 42/2/12 27/2/12 69/2/12 71/2/12
f 27/2/12 1/2/12 67/2/12 69/2/12
f 73/2/13 74/2/13 68/5/13 67/2/13
f 69/2/13 67/2/13 68/5/13 70/5/13
f 71/2/13 69/2/13 70/5/13 72/5/13
