# Blender 4.4.3
# www.blender.org
mtllib arrow.mtl
o Cube
v -0.500000 -0.200000 -1.000000
v -0.500000 0.200000 -1.000000
v 0.500000 -0.200000 -1.000000
v 0.500000 0.200000 -1.000000
v -0.500000 -0.200000 0.000000
v -0.500000 0.200000 0.000000
v 0.500000 -0.200000 0.000000
v 0.500000 0.200000 0.000000
v -0.750000 -0.200000 0.000000
v 0.750000 0.200000 0.000000
v -0.750000 0.200000 0.000000
v 0.750000 -0.200000 0.000000
v 0.000000 -0.200000 -1.000000
v 0.000000 0.200000 -1.000000
v 0.000000 -0.200000 1.000000
v 0.000000 0.200000 1.000000
v 0.000000 0.200000 0.000000
v 0.000000 -0.200000 0.000000
vn -1.0000 -0.0000 -0.0000
vn -0.0000 -0.0000 -1.0000
vn -0.0000 -1.0000 -0.0000
vn -0.0000 1.0000 -0.0000
vn 1.0000 -0.0000 -0.0000
vn 0.8000 -0.0000 0.6000
vn -0.8000 -0.0000 0.6000
vt 0.375000 0.125000
vt 0.625000 0.125000
vt 0.625000 0.250000
vt 0.375000 0.250000
vt 0.375000 0.375000
vt 0.625000 0.375000
vt 0.625000 0.500000
vt 0.375000 0.500000
vt 0.250000 0.625000
vt 0.000000 0.000000
vt 0.750000 0.500000
vt 0.875000 0.500000
vt 0.875000 0.625000
vt 0.750000 0.625000
vt 0.250000 0.500000
vt 0.375000 0.625000
vt 0.625000 0.625000
vt 0.125000 0.500000
vt 0.125000 0.625000
s 0
f 5/1/1 6/2/1 2/3/1 1/4/1
f 13/5/2 14/6/2 4/7/2 3/8/2
f 9/1/3 5/1/3 18/9/3 15/10/3
f 14/11/4 2/12/4 6/13/4 17/14/4
f 13/15/3 3/8/3 7/16/3 18/9/3
f 3/8/5 4/7/5 8/17/5 7/16/5
f 6/2/2 5/1/2 9/1/2 11/2/2
f 11/2/4 16/10/4 17/14/4 6/13/4
f 17/14/4 16/10/4 10/17/4 8/17/4
f 12/16/6 10/17/6 16/10/6 15/10/6
f 7/16/2 8/17/2 10/17/2 12/16/2
f 15/10/7 16/10/7 11/2/7 9/1/7
f 1/18/3 13/15/3 18/9/3 5/19/3
f 4/7/4 14/11/4 17/14/4 8/17/4
f 15/10/3 18/9/3 7/16/3 12/16/3
f 1/4/2 2/3/2 14/6/2 13/5/2
