# Blender 4.5.1 LTS
# www.blender.org
mtllib gem.mtl
o Icosphere
v -0.185498 0.008496 0.134773
v -0.185498 0.008496 -0.134773
v 0.070855 0.008497 -0.218067
v 0.229292 0.008498 -0.000000
v 0.070855 0.008497 0.218067
v 0.247155 0.022145 0.012979
v 0.388865 0.251435 0.012980
v 0.318010 0.393145 0.231046
v 0.132510 0.251435 0.365818
v 0.088720 0.022144 0.231046
v -0.192323 0.022144 0.155776
v 0.064032 0.022144 0.239068
v 0.107819 0.251435 0.373841
v -0.121468 0.393147 0.373841
v -0.306967 0.251435 0.239069
v -0.207583 0.022144 -0.134773
v -0.207583 0.022144 0.134773
v -0.322228 0.251435 0.218064
v -0.393082 0.393149 0.000000
v -0.322228 0.251435 -0.218064
v 0.064032 0.022144 -0.239068
v -0.192323 0.022144 -0.155776
v -0.306967 0.251435 -0.239069
v -0.121468 0.393147 -0.373841
v 0.107819 0.251435 -0.373841
v 0.388865 0.251435 -0.012980
v 0.247155 0.022145 -0.012979
v 0.088720 0.022144 -0.231046
v 0.132510 0.251435 -0.365818
v 0.318010 0.393145 -0.231046
v -0.107819 0.415232 0.373841
v 0.121468 0.273520 0.373841
v 0.306967 0.415232 0.239069
v 0.192323 0.644522 0.155776
v -0.064032 0.644522 0.239068
v -0.388865 0.415232 0.012980
v -0.318010 0.273521 0.231046
v -0.132510 0.415232 0.365818
v -0.088720 0.644522 0.231046
v -0.247155 0.644522 0.012979
v -0.132510 0.415232 -0.365818
v -0.318010 0.273521 -0.231046
v -0.388865 0.415232 -0.012980
v -0.247155 0.644522 -0.012979
v -0.088720 0.644522 -0.231046
v 0.306967 0.415232 -0.239069
v 0.121468 0.273520 -0.373841
v -0.107819 0.415232 -0.373841
v -0.064032 0.644522 -0.239068
v 0.192323 0.644522 -0.155776
v 0.322228 0.415232 0.218064
v 0.393082 0.273518 0.000000
v 0.322228 0.415232 -0.218064
v 0.207583 0.644522 -0.134773
v 0.207583 0.644522 0.134773
v -0.070855 0.658170 0.218067
v 0.185498 0.658171 0.134773
v 0.185498 0.658171 -0.134773
v -0.070855 0.658170 -0.218067
v -0.229292 0.658169 -0.000000
vn -0.0000 -1.0000 -0.0000
vn 0.7236 -0.4472 0.5257
vn -0.2764 -0.4472 0.8507
vn -0.8944 -0.4472 -0.0000
vn -0.2764 -0.4472 -0.8507
vn 0.7236 -0.4472 -0.5257
vn 0.2764 0.4472 0.8507
vn -0.7236 0.4472 0.5257
vn -0.7236 0.4472 -0.5257
vn 0.2764 0.4472 -0.8507
vn 0.8944 0.4472 -0.0000
vn -0.0000 1.0000 -0.0000
vn -0.1625 -0.8506 0.5000
vn 0.4253 -0.8506 0.3090
vn 0.2629 -0.5257 0.8090
vn 0.8507 -0.5257 -0.0000
vn 0.4253 -0.8506 -0.3090
vn -0.5257 -0.8507 -0.0000
vn -0.6882 -0.5257 0.5000
vn -0.1625 -0.8506 -0.5000
vn -0.6882 -0.5257 -0.5000
vn 0.2629 -0.5257 -0.8090
vn 0.9511 -0.0000 0.3090
vn 0.9511 -0.0000 -0.3090
vn -0.0000 -0.0000 1.0000
vn 0.5878 -0.0000 0.8090
vn -0.9511 -0.0000 0.3090
vn -0.5878 -0.0000 0.8090
vn -0.5878 -0.0000 -0.8090
vn -0.9511 -0.0000 -0.3090
vn 0.5878 -0.0000 -0.8090
vn -0.0000 -0.0000 -1.0000
vn 0.6882 0.5257 0.5000
vn -0.2629 0.5257 0.8090
vn -0.8507 0.5257 -0.0000
vn -0.2629 0.5257 -0.8090
vn 0.6882 0.5257 -0.5000
vn 0.1625 0.8506 0.5000
vn 0.5257 0.8507 -0.0000
vn -0.4253 0.8506 0.3090
vn -0.4253 0.8506 -0.3090
vn 0.1625 0.8506 -0.5000
vn -0.4911 -0.7947 0.3568
vn 0.1876 -0.7947 0.5774
vn 0.6071 -0.7947 -0.0000
vn -0.4911 -0.7947 -0.3568
vn 0.1876 -0.7947 -0.5774
vn 0.9822 -0.1876 -0.0000
vn 0.7946 0.1876 0.5774
vn 0.3035 -0.1876 0.9342
vn -0.3035 0.1876 0.9342
vn -0.7946 -0.1876 0.5774
vn -0.9822 0.1876 -0.0000
vn -0.7946 -0.1876 -0.5774
vn -0.3035 0.1876 -0.9342
vn 0.3035 -0.1876 -0.9342
vn 0.7946 0.1876 -0.5774
vn -0.1876 0.7947 0.5774
vn 0.4911 0.7947 0.3568
vn -0.6071 0.7947 -0.0000
vn -0.1876 0.7947 -0.5774
vn 0.4911 0.7947 -0.3568
vt 0.909091 0.099790
vt 0.865881 0.074842
vt 0.903589 0.009529
vt 0.914593 0.009530
vt 0.952301 0.074843
vt 0.236302 0.083924
vt 0.276655 0.154028
vt 0.262854 0.167697
vt 0.186308 0.162579
vt 0.186308 0.107566
vt 0.913581 0.107566
vt 0.956790 0.082618
vt 0.994499 0.147933
vt 0.987289 0.161429
vt 0.913580 0.162579
vt 0.854608 0.083924
vt 0.904602 0.107566
vt 0.904601 0.162579
vt 0.828057 0.167697
vt 0.814255 0.154027
vt 0.672790 0.083924
vt 0.722783 0.107566
vt 0.722784 0.162579
vt 0.646239 0.167697
vt 0.632436 0.154028
vt 0.450619 0.154028
vt 0.490972 0.083924
vt 0.540966 0.107566
vt 0.540966 0.162579
vt 0.464420 0.167697
vt 0.095399 0.265027
vt 0.143041 0.237519
vt 0.185746 0.301251
vt 0.174297 0.321292
vt 0.095398 0.320039
vt 0.822671 0.265027
vt 0.870313 0.237520
vt 0.906172 0.301929
vt 0.896381 0.318888
vt 0.822671 0.320038
vt 0.723346 0.301251
vt 0.766051 0.237520
vt 0.813693 0.265027
vt 0.813693 0.320038
vt 0.734795 0.321292
vt 0.541528 0.301251
vt 0.584233 0.237519
vt 0.631874 0.265027
vt 0.631875 0.320039
vt 0.552977 0.321292
vt 0.277218 0.265027
vt 0.324859 0.237518
vt 0.367564 0.301250
vt 0.356113 0.321292
vt 0.277217 0.320039
vt 0.861392 0.397539
vt 0.823684 0.462853
vt 0.812680 0.462853
vt 0.774972 0.397539
vt 0.818182 0.372591
vt 0.225030 0.074844
vt 0.181819 0.099791
vt 0.177329 0.207355
vt 0.177330 0.107566
vt 0.545455 0.099791
vt 0.502244 0.074844
vt 0.684063 0.074843
vt 0.727273 0.099790
vt 0.090910 0.257251
vt 0.086421 0.364816
vt 0.086421 0.265027
vt 0.090910 0.372591
vt 0.134120 0.397539
vt 0.315938 0.397540
vt 0.272728 0.372592
vt 0.593154 0.397539
vt 0.636364 0.372591
vt 0.363637 0.099791
vt 0.454546 0.372592
s 0
usemtl Gem
f 1/1/1 2/2/1 3/3/1 4/4/1 5/5/1
f 6/6/2 7/7/2 8/8/2 9/9/2 10/10/2
f 11/11/3 12/12/3 13/13/3 14/14/3 15/15/3
f 16/16/4 17/17/4 18/18/4 19/19/4 20/20/4
f 21/21/5 22/22/5 23/23/5 24/24/5 25/25/5
f 26/26/6 27/27/6 28/28/6 29/29/6 30/30/6
f 31/31/7 32/32/7 33/33/7 34/34/7 35/35/7
f 36/36/8 37/37/8 38/38/8 39/39/8 40/40/8
f 41/41/9 42/42/9 43/43/9 44/44/9 45/45/9
f 46/46/10 47/47/10 48/48/10 49/49/10 50/50/10
f 51/51/11 52/52/11 53/53/11 54/54/11 55/55/11
f 56/56/12 57/57/12 58/58/12 59/59/12 60/60/12
f 11/11/13 1/1/13 5/5/13 12/12/13
f 4/61/14 6/6/14 10/10/14 5/62/14
f 9/9/15 13/63/15 12/64/15 10/10/15
f 26/26/16 7/7/16 6/6/16 27/27/16
f 3/65/17 28/28/17 27/27/17 4/66/17
f 16/16/18 2/2/18 1/1/18 17/17/18
f 15/15/19 18/18/19 17/17/19 11/11/19
f 21/21/20 3/67/20 2/68/20 22/22/20
f 20/20/21 23/23/21 22/22/21 16/16/21
f 25/25/22 29/29/22 28/28/22 21/21/22
f 51/51/23 8/8/23 7/7/23 52/52/23
f 30/30/24 53/53/24 52/52/24 26/26/24
f 31/31/25 14/69/25 13/63/25 32/32/25
f 8/8/26 33/33/26 32/32/26 9/9/26
f 36/36/27 19/19/27 18/18/27 37/37/27
f 14/14/28 38/38/28 37/37/28 15/15/28
f 41/41/29 24/24/29 23/23/29 42/42/29
f 19/19/30 43/43/30 42/42/30 20/20/30
f 46/46/31 30/30/31 29/29/31 47/47/31
f 24/24/32 48/48/32 47/47/32 25/25/32
f 55/55/33 34/34/33 33/33/33 51/51/33
f 35/35/34 39/70/34 38/71/34 31/31/34
f 40/40/35 44/44/35 43/43/35 36/36/35
f 45/45/36 49/49/36 48/48/36 41/41/36
f 50/50/37 54/54/37 53/53/37 46/46/37
f 56/72/38 35/35/38 34/34/38 57/73/38
f 54/54/39 58/74/39 57/75/39 55/55/39
f 60/60/40 40/40/40 39/39/40 56/56/40
f 59/59/41 45/45/41 44/44/41 60/60/41
f 58/76/42 50/50/42 49/49/42 59/77/42
f 1/1/43 11/11/43 17/17/43
f 5/62/44 10/10/44 12/64/44
f 6/6/45 4/78/45 27/27/45
f 2/68/46 16/16/46 22/22/46
f 3/65/47 21/21/47 28/28/47
f 7/7/48 26/26/48 52/52/48
f 8/8/49 51/51/49 33/33/49
f 13/63/50 9/9/50 32/32/50
f 14/69/51 31/31/51 38/71/51
f 18/18/52 15/15/52 37/37/52
f 19/19/53 36/36/53 43/43/53
f 23/23/54 20/20/54 42/42/54
f 24/24/55 41/41/55 48/48/55
f 29/29/56 25/25/56 47/47/56
f 30/30/57 46/46/57 53/53/57
f 39/70/58 35/35/58 56/72/58
f 34/34/59 55/55/59 57/75/59
f 44/44/60 40/40/60 60/60/60
f 49/49/61 45/45/61 59/77/61
f 54/54/62 50/50/62 58/79/62
