# Blender 4.4.3
# www.blender.org
mtllib road_segment_x.mtl
o Cube.001
v -8.000000 -1.999997 8.000000
v 8.000000 -1.999997 8.000000
v 8.000000 -2.000003 -8.000000
v -7.300000 0.000000 -8.000000
v -0.480000 0.000000 -8.000000
v 0.480000 0.000000 -8.000000
v 7.300000 0.000000 -8.000000
v 7.300000 0.000000 8.000000
v 0.480000 0.000000 8.000000
v -0.480000 0.000000 8.000000
v -7.300000 0.000000 8.000000
v -0.240000 0.199997 -8.000000
v 0.240000 0.199997 -8.000000
v 0.240000 0.200003 8.000000
v -0.240000 0.200003 8.000000
v -8.000000 0.099997 -8.000000
v 7.300000 0.099997 -8.000000
v 8.000000 0.099997 -8.000000
v 8.000000 0.100003 8.000000
v -7.300000 0.100003 8.000000
v -7.300000 0.099997 -8.000000
v 7.300000 0.100003 8.000000
v -8.000000 -2.000003 -8.000000
v -8.000000 0.000000 7.300001
v -8.000000 0.000000 0.480000
v -8.000000 0.000000 -0.480000
v -8.000000 0.000000 -7.300000
v 8.000000 0.000000 -7.300001
v 8.000000 0.000000 -0.480000
v 8.000000 0.000000 0.480000
v 8.000000 0.000000 7.300000
v -8.000000 0.199998 0.240000
v -8.000000 0.199998 -0.240000
v 8.000000 0.200002 -0.240000
v 8.000000 0.200002 0.240000
v -8.000000 0.099999 8.000000
v -8.000000 0.099997 -7.300000
v 8.000000 0.100003 7.300000
v -8.000000 0.099999 7.300001
v 8.000000 0.100001 -7.300001
v -7.300000 0.000000 7.300001
v -7.300000 0.000000 0.480000
v -7.300000 0.000000 -0.480000
v -7.300000 0.000000 -7.300000
v -7.446000 0.199998 0.240000
v -7.446000 0.199998 -0.240000
v 7.300000 0.000000 7.300000
v 0.480000 0.000000 7.300000
v -0.480000 0.000000 7.300000
v 0.240000 0.200003 7.446000
v -0.240000 0.200003 7.446000
v -7.300000 0.100003 7.300000
v 7.300000 0.000000 -0.480000
v 7.300000 0.000000 0.480000
v 7.446000 0.200002 -0.240000
v 7.446000 0.200002 0.240000
v 7.300000 0.100003 7.300000
v -0.480000 0.000000 -7.300000
v 0.480000 0.000000 -7.300000
v 7.300000 0.000000 -7.300000
v -0.240000 0.199997 -7.446000
v 0.240000 0.199997 -7.446000
v 7.300000 0.099997 -7.300000
v -7.300000 0.099997 -7.300000
v -8.000000 -0.000003 -8.000001
v -8.000000 0.000003 8.000000
v 8.000000 -0.000003 -8.000001
v 8.000000 0.000003 8.000000
vn -0.0000 1.0000 -0.0000
vn 0.6402 0.7682 -0.0000
vn 0.4212 0.8145 -0.3989
vn 0.3733 0.8845 0.2799
vn 0.5486 0.7673 0.3322
vn 0.8077 0.5896 -0.0000
vn 0.7005 0.5593 -0.4434
vn -0.0000 0.7682 -0.6402
vn -0.4427 0.7172 -0.5381
vn 0.2799 0.8845 -0.3733
vn -0.2796 0.5265 0.8029
vn -0.2366 0.9293 0.2836
vn -0.0000 0.7682 0.6402
vn 0.3958 0.6927 -0.6029
vn -0.0000 0.5896 -0.8077
vn -0.4434 0.5592 -0.7005
vn -0.6402 0.7682 -0.0000
vn -0.4212 0.8145 0.3989
vn -0.3733 0.8845 -0.2799
vn 0.8029 0.5264 0.2796
vn 0.2837 0.9293 0.2366
vn -0.6029 0.6927 -0.3958
vn -0.8077 0.5896 -0.0000
vn -0.7005 0.5593 0.4434
vn 0.3989 0.8145 0.4212
vn -0.2799 0.8845 0.3733
vn -0.2795 0.8847 -0.3730
vn 0.2365 0.9293 -0.2837
vn -0.3958 0.6927 0.6029
vn -0.0000 0.5896 0.8077
vn 0.4434 0.5593 0.7005
vn -0.8029 0.5265 -0.2796
vn -0.2836 0.9293 -0.2366
vn -0.0000 -1.0000 -0.0000
vn -0.0000 -0.0000 -1.0000
vn -0.0000 -0.0000 1.0000
vn 1.0000 -0.0000 -0.0000
vn -1.0000 -0.0000 -0.0000
vt 0.000000 0.000000
vt 0.625000 0.400000
vt 0.625000 0.350000
vt 0.625000 0.900000
vt 0.625000 0.850000
vt 0.375000 0.750000
vt 0.375000 1.000000
vt 0.375000 0.500000
vt 0.625000 0.300000
vt 0.625000 0.450000
vt 0.625000 0.950000
vt 0.625000 0.800000
vt 0.625000 0.750000
vt 0.625000 0.500000
vt 0.625000 1.000000
s 1
usemtl Orange
f 14/1/1 50/1/1 51/1/1 15/1/1
f 13/1/2 62/1/2 59/1/3 6/1/4
f 34/1/1 55/1/1 56/1/1 35/1/1
f 43/2/5 46/2/6 45/3/6 42/3/7
f 33/1/8 46/1/8 43/1/9 26/1/10
f 32/1/1 45/1/1 46/1/1 33/1/1
f 25/1/11 42/1/12 45/1/13 32/1/13
f 49/4/14 51/4/15 50/5/15 48/5/16
f 15/1/17 51/1/17 49/1/18 10/1/19
f 9/1/20 48/1/21 50/1/2 14/1/2
f 54/4/22 56/4/23 55/5/23 53/5/24
f 35/1/13 56/1/13 54/1/25 30/1/26
f 29/1/27 53/1/28 55/1/8 34/1/8
f 59/2/29 62/2/30 61/3/30 58/3/31
f 12/1/1 61/1/1 62/1/1 13/1/1
f 5/1/32 58/1/33 61/1/17 12/1/17
usemtl Asphalt
f 3/6/34 2/7/34 1/7/34 23/8/34
f 24/9/35 39/9/35 52/9/35 41/9/35
f 37/10/36 27/10/36 44/10/36 64/10/36
f 20/11/37 11/11/37 41/11/37 52/11/37
f 8/12/38 22/12/38 57/12/38 47/12/38
f 28/12/36 40/12/36 63/12/36 60/12/36
f 38/11/35 31/11/35 47/11/35 57/11/35
f 4/9/37 21/9/37 64/9/37 44/9/37
f 17/10/38 7/10/38 60/10/38 63/10/38
f 17/10/1 63/10/1 40/12/1 18/13/1
f 16/14/1 37/10/1 64/10/1 21/9/1
f 36/15/1 20/11/1 52/11/1 39/9/1
f 19/15/1 38/11/1 57/11/1 22/12/1
f 67/6/1 65/8/1 66/7/1 68/7/1
