# Blender 4.5.1 LTS
# www.blender.org
mtllib corridor_long.mtl
o Plane
v -4.000000 0.296575 4.000000
v 4.000000 0.296575 4.000000
v -4.000000 0.296575 -4.000000
v 4.000000 0.296575 -4.000000
v -9.600000 0.296575 4.000000
v 9.600000 0.296575 4.000000
v -9.600000 0.296575 -4.000000
v 9.600000 0.296575 -4.000000
v -4.000000 -2.103425 -1.866668
v -4.000000 -2.103425 1.866668
v 4.000000 -2.103425 1.866668
v 4.000000 -2.103425 -1.866668
v -9.600000 -2.103425 -1.866668
v -9.600000 -2.103425 1.866668
v 9.600000 -2.103425 1.866668
v 9.600000 -2.103425 -1.866668
v -4.000000 -2.103425 -0.995556
v -4.000000 -2.103425 0.995556
v 4.000000 -2.103425 0.995556
v 4.000000 -2.103425 -0.995556
v -9.600000 -2.103425 -0.995556
v -9.600000 -2.103425 0.995556
v 9.600000 -2.103425 0.995556
v 9.600000 -2.103425 -0.995556
v -4.000000 1.080995 4.000000
v 4.000000 1.080995 4.000000
v -4.000000 1.080994 -4.000000
v 4.000000 1.080994 -4.000000
v -9.600000 1.080995 4.000000
v 9.600000 1.080995 4.000000
v -9.600000 1.080994 -4.000000
v 9.600000 1.080994 -4.000000
v -9.600000 1.080995 -1.866668
v -9.600000 1.080995 1.866668
v 9.600000 1.080995 1.866668
v 9.600000 1.080995 -1.866668
v -9.600000 1.080995 -0.995556
v -9.600000 1.080995 0.995556
v 9.600000 1.080995 0.995556
v 9.600000 1.080995 -0.995556
v -4.000000 5.480996 4.000000
v 4.000000 5.480996 4.000000
v -4.000000 5.480995 -4.000000
v 4.000000 5.480995 -4.000000
v -9.600000 5.480996 4.000000
v 9.600000 5.480996 4.000000
v -9.600000 5.480995 -4.000000
v 9.600000 5.480995 -4.000000
v -9.600000 5.480995 -1.866668
v -9.600000 5.480995 1.866668
v 9.600000 5.480995 1.866668
v 9.600000 5.480995 -1.866668
v -9.600000 5.480995 -0.995556
v -9.600000 5.480995 0.995556
v 9.600000 5.480995 0.995556
v 9.600000 5.480995 -0.995556
v -10.000000 -2.103425 -0.995556
v -10.000000 -2.103425 0.995556
v -10.000000 1.080995 -0.995556
v -10.000000 1.080995 0.995556
v 10.000000 -2.103425 0.995556
v 10.000000 -2.103425 -0.995556
v 10.000000 1.080995 0.995556
v 10.000000 1.080995 -0.995556
vn -0.0000 0.6644 -0.7474
vn -0.0000 0.6644 0.7474
vn -0.0000 1.0000 -0.0000
vn -0.0000 -0.0000 -1.0000
vn -0.0000 -0.0000 1.0000
vn 1.0000 -0.0000 -0.0000
vn -1.0000 -0.0000 -0.0000
vn -0.0000 -1.0000 -0.0000
vt 1.000000 0.333333
vt 1.000000 0.000000
vt 0.000000 0.666667
vt 0.000000 1.000000
vt 0.000000 0.000000
vt 0.000000 0.333333
vt 0.000000 0.555555
vt 1.000000 1.000000
vt 1.000000 0.666667
vt 1.000000 0.444444
vt 1.000000 0.555556
vt 0.000000 0.444444
s 1
f 11/1/1 2/2/1 6/2/1 15/1/1
f 9/3/2 3/4/2 7/4/2 13/3/2
f 1/5/1 10/6/1 14/6/1 5/5/1
f 17/7/3 9/3/3 13/3/3 21/7/3
f 4/8/2 12/9/2 16/9/2 8/8/2
f 19/10/3 11/1/3 15/1/3 23/10/3
f 12/9/3 20/11/3 24/11/3 16/9/3
f 20/11/3 19/10/3 23/10/3 24/11/3
f 10/6/3 18/12/3 22/12/3 14/6/3
f 18/12/3 17/7/3 21/7/3 22/12/3
f 1/5/4 5/5/4 29/5/4 25/5/4
f 7/4/5 3/4/5 27/4/5 31/4/5
f 21/7/6 13/3/6 33/3/6 37/7/6
f 13/3/6 7/4/6 31/4/6 33/3/6
f 14/6/6 22/12/6 38/12/6 34/6/6
f 23/10/7 15/1/7 35/1/7 39/10/7
f 15/1/7 6/2/7 30/2/7 35/1/7
f 16/9/7 24/11/7 40/11/7 36/9/7
f 5/5/6 14/6/6 34/6/6 29/5/6
f 8/8/7 16/9/7 36/9/7 32/8/7
f 4/8/5 8/8/5 32/8/5 28/8/5
f 6/2/4 2/2/4 26/2/4 30/2/4
f 35/1/7 30/2/7 46/2/7 51/1/7
f 36/9/7 40/11/7 56/11/7 52/9/7
f 29/5/6 34/6/6 50/6/6 45/5/6
f 37/7/6 33/3/6 49/3/6 53/7/6
f 32/8/7 36/9/7 52/9/7 48/8/7
f 38/12/6 37/7/6 53/7/6 54/12/6
f 28/8/5 32/8/5 48/8/5 44/8/5
f 39/10/7 35/1/7 51/1/7 55/10/7
f 30/2/4 26/2/4 42/2/4 46/2/4
f 40/11/7 39/10/7 55/10/7 56/11/7
f 25/5/4 29/5/4 45/5/4 41/5/4
f 31/4/5 27/4/5 43/4/5 47/4/5
f 33/3/6 31/4/6 47/4/6 49/3/6
f 34/6/6 38/12/6 54/12/6 50/6/6
f 37/7/8 38/12/8 60/12/8 59/7/8
f 22/12/3 21/7/3 57/7/3 58/12/3
f 21/7/5 37/7/5 59/7/5 57/7/5
f 38/12/4 22/12/4 58/12/4 60/12/4
f 24/11/3 23/10/3 61/10/3 62/11/3
f 23/10/4 39/10/4 63/10/4 61/10/4
f 40/11/5 24/11/5 62/11/5 64/11/5
f 39/10/8 40/11/8 64/11/8 63/10/8
f 43/4/5 27/4/5 28/8/5 44/8/5
f 27/4/5 3/4/5 4/8/5 28/8/5
f 3/4/2 9/3/2 12/9/2 4/8/2
f 9/3/3 17/7/3 20/11/3 12/9/3
f 17/7/3 18/12/3 19/10/3 20/11/3
f 18/12/3 10/6/3 11/1/3 19/10/3
f 10/6/1 1/5/1 2/2/1 11/1/1
f 1/5/4 25/5/4 26/2/4 2/2/4
f 25/5/4 41/5/4 42/2/4 26/2/4
