# Blender 4.5.1 LTS
# www.blender.org
mtllib spawnroom.mtl
o Plane
v -4.000000 -0.003425 -0.995556
v -4.000000 -0.003425 0.995556
v 4.000000 -0.003425 0.995556
v 4.000000 -0.003425 -0.995556
v -11.600000 -0.003425 -0.995556
v -11.600000 -0.003425 0.995556
v 11.600000 -0.003425 0.995556
v 11.600000 -0.003425 -0.995556
v -1.866668 -0.003425 0.995556
v -1.866668 -0.003425 -0.995556
v 1.866668 -0.003425 0.995556
v 1.866668 -0.003425 -0.995556
v 0.995556 -0.003425 -4.000000
v -0.995556 -0.003425 -4.000000
v -0.995556 2.996576 11.600000
v 0.995556 2.996576 11.600000
v 0.995556 -0.003428 -11.600000
v -0.995556 -0.003428 -11.600000
v 0.995556 -0.003425 -1.866668
v -0.995556 -0.003425 -1.866668
v -11.600000 3.180995 -0.995556
v -11.600000 3.180995 0.995556
v 11.600000 3.180995 0.995556
v 11.600000 3.180995 -0.995556
v -0.995556 6.180996 11.600000
v 0.995556 6.180991 11.600000
v 0.995556 3.180992 -11.600000
v -0.995556 3.180989 -11.600000
v -11.600000 7.580995 -0.995557
v -11.600000 7.580995 0.995555
v 11.600000 7.580995 0.995555
v 11.600000 7.581000 -0.995557
v -0.995556 7.580997 11.599998
v 0.995556 7.580997 11.599998
v 0.995556 7.580997 -11.600001
v -0.995556 7.580995 -11.600001
v -12.000000 -0.003425 -0.995556
v -12.000000 -0.003425 0.995556
v -12.000000 3.180995 -0.995556
v -12.000000 3.180995 0.995556
v 12.000000 -0.003425 0.995556
v 12.000000 -0.003425 -0.995556
v 12.000000 3.180995 0.995556
v 12.000000 3.180995 -0.995556
v -0.995556 2.996578 12.000000
v 0.995556 2.996578 12.000000
v -0.995556 6.180996 12.000000
v 0.995556 6.180996 12.000000
v 0.995556 -0.003428 -12.000000
v -0.995556 -0.003428 -12.000000
v 0.995556 3.180992 -12.000000
v -0.995556 3.180992 -12.000000
v -4.000000 -0.003425 4.000000
v 4.000000 -0.003425 4.000000
v 0.995553 7.581003 1.866670
v 0.995553 7.580999 4.000002
v 0.995556 2.996575 4.000000
v 0.995556 2.996580 1.866668
v 1.866668 2.996575 0.995556
v -4.000000 2.996575 0.995556
v -1.866668 2.996575 0.995556
v -0.995556 -0.000002 1.866668
v 4.000000 2.996575 0.995556
v -0.995556 2.996575 1.866668
v 0.995556 0.000003 1.866668
v -0.995556 2.996575 4.000000
v -4.000000 2.996575 4.000000
v 4.000000 2.996575 4.000000
v -6.558181 -0.003428 -10.201238
v 6.558181 -0.003428 -10.201238
v -10.296609 -0.003425 -6.506832
v 10.296609 -0.003425 -6.506832
v -6.558181 3.180988 -10.201238
v -10.296609 3.180991 -6.506832
v 6.558181 3.180988 -10.201238
v 10.296609 3.180990 -6.506832
v 6.558181 7.581000 -10.201239
v 10.296609 7.581001 -6.506832
v -6.558177 7.580997 -10.201239
v -10.296604 7.581000 -6.506832
v -11.600000 -0.003425 3.995556
v 11.600000 -0.003425 3.995556
v 0.995556 0.000000 0.995556
v -0.995556 0.000000 0.995556
v -11.600000 3.180995 4.000000
v 11.600000 3.180995 4.000000
v -11.600000 7.580996 4.000000
v 11.600000 7.580996 4.000000
v -4.000000 2.996576 5.500000
v 4.000000 2.996576 5.500000
v -11.600000 3.180995 5.500000
v 11.600000 3.180995 5.500000
v -11.600000 7.581000 5.500000
v 11.600000 7.580996 5.500000
v -0.995556 6.180986 -11.600000
v 0.995556 6.180989 -11.600000
v 11.600000 6.180992 -0.995556
v -11.600000 6.180989 -0.995556
v -11.600000 6.180989 0.995556
v 11.600000 6.180989 0.995556
v 10.296609 6.180991 -6.506832
v 6.558181 6.180990 -10.201238
v -6.558178 6.180988 -10.201238
v -10.296605 6.180991 -6.506832
v -11.600000 6.180989 4.000000
v 11.600000 6.180989 4.000000
v -11.600000 6.180989 5.500000
v 11.600000 6.180989 5.500000
v -4.000000 6.180991 5.500000
v 4.000000 6.180991 5.500000
v -4.000000 7.581000 5.500000
v 4.000000 7.581000 5.500000
v 0.995556 -0.000000 -0.995556
v -0.995556 -0.000000 -0.995556
v -0.995559 7.580998 1.866670
v -0.995559 7.580999 4.000002
vn -0.0000 1.0000 -0.0000
vn -0.0039 1.0000 -0.0000
vn -0.0000 -0.0000 1.0000
vn 1.0000 -0.0000 -0.0000
vn -1.0000 -0.0000 -0.0000
vn -0.0000 -0.0000 -1.0000
vn -0.0000 -1.0000 -0.0000
vn -0.0039 1.0000 -0.0039
vn 0.0039 1.0000 -0.0039
vn 0.0039 1.0000 -0.0000
vn 0.7029 -0.0000 0.7113
vn -0.7029 -0.0000 0.7113
vn 0.2439 -0.0000 0.9698
vn 0.9732 -0.0000 0.2301
vn -0.2439 -0.0000 0.9698
vn -0.9732 -0.0000 0.2301
vn -0.0003 0.0007 -1.0000
vn 0.0003 0.0007 -1.0000
vn -0.0243 0.9997 -0.0000
vn 0.0243 0.9997 -0.0000
vn 0.8971 -0.0000 -0.4418
vn -0.8971 -0.0000 -0.4418
vn -0.0000 1.0000 -0.0039
vn 0.7071 -0.0000 -0.7071
vn -0.7071 -0.0000 -0.7071
vt 0.000000 0.444444
vt 0.333333 0.444444
vt 0.333333 0.555556
vt 0.000000 0.555555
vt 0.666667 0.444444
vt 1.000000 0.444444
vt 1.000000 0.555556
vt 0.666667 0.555556
vt 0.444444 0.666667
vt 0.555555 0.666667
vt 0.555555 1.000000
vt 0.444444 1.000000
vt 0.000000 0.000000
vt 0.555556 0.000000
vt 0.444444 0.000000
vt 0.444444 0.333333
vt 0.555555 0.333333
vt 0.444444 0.444444
vt 0.555555 0.444444
s 0
f 2/1/1 9/2/1 10/3/1 1/4/1
f 11/5/1 3/6/1 4/7/1 12/8/1
f 4/7/1 3/6/1 7/6/1 8/7/1
f 2/1/1 1/4/1 5/4/1 6/1/1
f 20/9/1 19/10/1 13/11/1 14/12/1
f 14/12/1 13/11/1 17/11/1 18/12/1
f 62/13/2 84/13/2 9/13/2
f 95/12/3 96/11/3 35/11/3 36/12/3
f 99/1/4 98/4/4 29/4/4 30/1/4
f 97/7/5 100/6/5 31/6/5 32/7/5
f 26/14/6 25/15/6 33/15/6 34/14/6
f 21/4/7 22/1/7 40/1/7 39/4/7
f 6/1/1 5/4/1 37/4/1 38/1/1
f 5/4/3 21/4/3 39/4/3 37/4/3
f 22/1/6 6/1/6 38/1/6 40/1/6
f 8/7/1 7/6/1 41/6/1 42/7/1
f 7/6/6 23/6/6 43/6/6 41/6/6
f 24/7/3 8/7/3 42/7/3 44/7/3
f 23/6/7 24/7/7 44/7/7 43/6/7
f 16/14/1 15/15/1 45/15/1 46/14/1
f 15/15/4 25/15/4 47/15/4 45/15/4
f 25/15/7 26/14/7 48/14/7 47/15/7
f 26/14/5 16/14/5 46/14/5 48/14/5
f 18/12/1 17/11/1 49/11/1 50/12/1
f 28/12/4 18/12/4 50/12/4 52/12/4
f 17/11/5 27/11/5 51/11/5 49/11/5
f 27/11/7 28/12/7 52/12/7 51/11/7
f 10/3/1 20/9/1 14/12/1 1/4/1
f 10/3/8 114/13/8 20/9/8
f 9/2/6 2/1/6 60/1/6 61/2/6
f 2/13/5 53/13/5 67/13/5 60/13/5
f 3/6/6 11/5/6 59/5/6 63/6/6
f 12/8/1 4/7/1 13/11/1 19/10/1
f 62/16/1 65/17/1 83/13/1 84/18/1
f 17/11/1 13/11/1 4/7/1 8/7/1
f 5/4/1 1/4/1 14/12/1 18/12/1
f 113/13/9 12/8/9 19/10/9
f 65/13/10 11/13/10 83/13/10
f 54/13/4 3/13/4 63/13/4 68/13/4
f 57/14/4 58/17/4 55/17/4 56/14/4
f 61/2/1 60/1/1 66/15/1 64/16/1
f 58/17/1 57/14/1 63/6/1 59/5/1
f 66/15/1 60/1/1 67/15/1
f 57/14/1 68/14/1 63/6/1
f 16/14/1 57/14/1 66/15/1 15/15/1
f 71/13/1 5/4/1 18/12/1 69/13/1
f 8/7/1 72/13/1 70/13/1 17/11/1
f 71/13/11 69/13/11 73/13/11 74/13/11
f 70/13/12 72/13/12 76/13/12 75/13/12
f 102/13/12 101/13/12 78/13/12 77/13/12
f 104/13/11 103/13/11 79/13/11 80/13/11
f 95/12/13 103/13/13 73/13/13 28/12/13
f 28/12/13 73/13/13 69/13/13 18/12/13
f 5/4/14 71/13/14 74/13/14 21/4/14
f 98/4/14 104/13/14 80/13/14 29/4/14
f 17/11/15 70/13/15 75/13/15 27/11/15
f 96/11/15 102/13/15 77/13/15 35/11/15
f 97/7/16 101/13/16 76/13/16 24/7/16
f 24/7/16 76/13/16 72/13/16 8/7/16
f 6/1/1 81/13/1 53/13/1 2/1/1
f 7/6/1 3/6/1 54/13/1 82/13/1
f 64/16/6 58/17/6 65/17/6 62/16/6
f 100/6/5 23/6/5 86/6/5 106/6/5
f 99/1/4 30/1/4 87/1/4 105/1/4
f 22/1/4 85/1/4 81/13/4 6/1/4
f 23/6/5 7/6/5 82/13/5 86/6/5
f 68/13/17 86/6/17 82/13/17 54/13/17
f 67/13/18 53/13/18 81/13/18 85/1/18
f 106/6/5 86/6/5 92/6/5 108/6/5
f 86/6/19 68/13/19 90/13/19 92/6/19
f 105/1/4 87/1/4 93/1/4 107/1/4
f 67/13/20 85/1/20 91/1/20 89/13/20
f 68/13/1 57/14/1 16/14/1 90/13/1
f 67/13/1 89/13/1 15/15/1 66/15/1
f 85/1/4 105/1/4 107/1/4 91/1/4
f 88/6/5 106/6/5 108/6/5 94/6/5
f 22/1/4 99/1/4 105/1/4 85/1/4
f 31/6/5 100/6/5 106/6/5 88/6/5
f 32/7/16 78/13/16 101/13/16 97/7/16
f 27/11/15 75/13/15 102/13/15 96/11/15
f 21/4/14 74/13/14 104/13/14 98/4/14
f 36/12/13 79/13/13 103/13/13 95/12/13
f 74/13/11 73/13/11 103/13/11 104/13/11
f 75/13/12 76/13/12 101/13/12 102/13/12
f 24/7/5 23/6/5 100/6/5 97/7/5
f 22/1/4 21/4/4 98/4/4 99/1/4
f 28/12/3 27/11/3 96/11/3 95/12/3
f 33/15/21 25/15/21 109/13/21 111/13/21
f 93/1/6 111/13/6 109/13/6 107/1/6
f 89/13/6 91/1/6 107/1/6 109/13/6
f 25/15/21 15/15/21 89/13/21 109/13/21
f 34/14/22 112/13/22 110/13/22 26/14/22
f 26/14/22 110/13/22 90/13/22 16/14/22
f 94/6/6 108/6/6 110/13/6 112/13/6
f 90/13/6 110/13/6 108/6/6 92/6/6
f 84/18/1 83/19/1 113/19/1 114/18/1
f 12/8/10 113/13/10 83/19/10 11/13/10
f 9/13/2 84/13/2 114/18/2 10/3/2
f 20/9/23 114/13/23 113/19/23 19/10/23
f 64/16/24 62/13/24 9/2/24 61/2/24
f 11/13/25 65/13/25 58/17/25 59/5/25
f 116/15/1 56/14/1 55/17/1 115/16/1
f 66/15/3 57/14/3 56/14/3 116/15/3
f 58/17/6 64/16/6 115/16/6 55/17/6
f 64/16/5 66/15/5 116/15/5 115/16/5
