# Blender 4.5.1 LTS
# www.blender.org
mtllib walkway1.mtl
o Plane
v -2.000000 -0.003425 -1.866668
v -2.000000 -0.003425 1.866668
v 2.000000 -0.003425 1.866668
v 2.000000 -0.003425 -1.866668
v -4.600000 -0.003425 -1.866668
v -4.600000 -0.003425 1.866668
v 4.600000 -0.003425 1.866668
v 4.600000 -0.003425 -1.866668
v -2.000000 -0.003425 -0.995556
v -2.000000 -0.003425 0.995556
v 2.000000 -0.003425 0.995556
v 2.000000 -0.003425 -0.995556
v -4.600000 -0.003425 -0.995556
v -4.600000 -0.003425 0.995556
v 4.600000 -0.003425 0.995556
v 4.600000 -0.003425 -0.995556
v -4.600000 3.180994 -11.599988
v 4.600000 3.180994 -11.599988
v -4.600000 3.180995 -1.866668
v -4.600000 3.180995 1.866668
v 4.600000 3.180990 1.866668
v 4.600000 3.180995 -1.866668
v -4.600000 3.180995 -0.995556
v -4.600000 3.180995 0.995556
v 4.600000 3.180995 0.995556
v 4.600000 3.180995 -0.995556
v -4.600000 7.996569 -11.599989
v 4.600000 7.996567 -11.600023
v -4.600000 7.996568 -1.866669
v -4.600000 7.996572 1.866667
v 4.600000 7.996568 1.866667
v 4.600000 7.996568 -1.866669
v -4.600000 7.996568 -0.995557
v -4.600000 7.996568 0.995555
v 4.600000 7.996568 0.995555
v 4.600000 7.996568 -0.995557
v -5.000000 -0.003425 -0.995556
v -5.000000 -0.003425 0.995556
v -5.000000 3.180995 -0.995556
v -5.000000 3.180995 0.995556
v 5.000000 -0.003425 0.995556
v 5.000000 -0.003425 -0.995556
v 5.000000 3.180995 0.995556
v 5.000000 3.180995 -0.995556
v -2.000000 7.996575 5.600000
v 2.000000 7.996571 5.600000
v -0.995556 7.996575 5.600000
v 0.995556 7.996575 5.600000
v 0.995556 7.996575 -11.600000
v -0.995556 7.996575 -11.600000
v -2.000000 11.180994 5.600000
v 2.000000 11.181000 5.600000
v -0.995556 11.180995 5.600000
v 0.995556 11.180995 5.600000
v 0.995556 11.180994 -11.599999
v -0.995556 11.180999 -11.599999
v 2.000000 3.180990 1.866668
v -2.000000 3.180990 1.866668
v -0.995556 7.996575 6.000000
v 0.995556 7.996575 6.000000
v -0.995556 11.180994 6.000000
v 0.995556 11.180994 6.000000
v 0.995556 7.996575 -12.000001
v -0.995556 7.996575 -12.000001
v 0.995556 11.180995 -12.000000
v -0.995556 11.180995 -12.000000
v 2.000000 7.996573 1.866667
v -2.000000 7.996573 1.866667
v -0.995556 -0.003425 -1.866668
v 0.995556 -0.003425 -1.866668
v -0.995556 -0.003425 -0.995556
v 0.995556 -0.003425 -0.995556
v -0.995556 -0.003425 0.995556
v 0.995556 -0.003425 0.995556
v -0.995556 -0.003425 1.866668
v 0.995556 -0.003425 1.866668
v -0.995556 3.180990 1.866668
v 0.995556 3.180990 1.866668
v -0.995556 7.996573 1.866667
v 0.995556 7.996573 1.866667
v 4.600000 7.683844 1.866667
v 4.600000 7.683844 -1.866669
v 4.600000 7.683844 -0.995557
v -4.600000 7.683848 1.866667
v -4.600000 7.683844 -0.995557
v -4.600000 7.683844 -1.866669
v 4.600000 7.683843 -11.599989
v -4.600000 7.683844 0.995555
v 4.600000 7.683844 0.995555
v -4.600000 7.683839 -11.599989
v -2.000000 7.683848 1.866667
v 2.000000 7.683848 1.866667
v 0.995556 7.683848 1.866667
v -0.995556 7.683848 1.866667
v 4.600000 3.180994 -8.798487
v 4.600000 7.996567 -8.798488
v 4.600000 7.683843 -8.798488
v -4.600000 -0.003426 -8.798487
v -4.600000 3.180994 -8.798487
v -4.600000 7.996567 -8.798488
v -4.600000 7.683843 -8.798488
v 2.000000 -0.003426 -8.798487
v 0.995556 -0.003426 -8.798487
v -0.995556 -0.003426 -8.798487
v -2.000000 -0.003426 -8.798487
v 2.000000 3.180994 -8.798487
v 0.995556 3.180994 -8.798487
v -0.995556 3.180994 -8.798487
v -2.000000 3.180994 -8.798487
v 2.000000 3.180994 -11.599988
v 0.995556 3.180994 -11.599988
v -0.995556 3.180994 -11.599988
v -2.000000 3.180994 -11.600022
v 2.000000 7.683839 -11.599989
v -2.000000 7.683839 -11.600023
v 0.995556 7.683839 -11.599989
v -0.995556 7.683839 -11.599989
v 2.000000 7.996569 -11.599989
v -2.000000 7.996569 -11.600023
v -4.600000 11.181001 -11.599989
v 4.600000 11.180999 -11.600023
v -4.600000 11.181000 -1.866669
v -4.600000 11.181004 1.866667
v 4.600000 11.181000 1.866667
v 4.600000 11.181000 -1.866669
v -4.600000 11.181000 -0.995557
v -4.600000 11.181000 0.995555
v 4.600000 11.181000 0.995555
v 4.600000 11.181000 -0.995557
v 4.600000 11.180999 -8.798488
v -4.600000 11.180999 -8.798488
v 2.000000 11.181001 -11.599989
v -2.000000 11.181001 -11.600023
v 4.600000 7.996571 5.600000
v -4.600000 7.996575 5.600000
v 4.600000 11.180998 5.599999
v -4.600000 11.181002 5.599999
vn -0.0000 1.0000 -0.0000
vn 1.0000 -0.0000 -0.0000
vn -1.0000 -0.0000 -0.0000
vn -0.0000 -0.0000 -1.0000
vn -0.0000 -1.0000 -0.0000
vn -0.0000 -0.0000 1.0000
vn -0.0000 0.9087 0.4174
vn -0.0000 0.0001 1.0000
vt 0.000000 0.555555
vt 0.000000 0.666667
vt 1.000000 0.444444
vt 1.000000 0.333333
vt 1.000000 0.666667
vt 1.000000 0.555556
vt 0.000000 0.333333
vt 0.000000 0.444444
vt 0.800000 0.900000
vt 0.800000 0.900000
vt 1.000000 0.900000
vt 0.000000 0.900000
vt 0.000000 1.000000
vt 0.000000 0.900000
vt 0.666667 0.666667
vt 0.666667 0.555556
vt 0.666667 0.444444
vt 0.666667 0.333333
vt 0.000000 0.000000
vt 0.600000 1.000000
vt 0.400000 1.000000
vt 0.333333 0.333333
vt 0.666667 0.333333
vt 0.333333 0.444444
vt 0.333333 0.555555
vt 0.333333 0.666667
vt 1.000000 1.000000
vt 0.800000 1.000000
vt 0.200000 0.900000
vt 0.200000 1.000000
vt 0.400000 0.900000
vt 0.600000 0.900000
s 0
f 9/1/1 1/2/1 5/2/1 13/1/1
f 11/3/1 3/4/1 7/4/1 15/3/1
f 4/5/1 12/6/1 16/6/1 8/5/1
f 12/6/1 11/3/1 15/3/1 16/6/1
f 2/7/1 10/8/1 14/8/1 6/7/1
f 10/8/1 9/1/1 13/1/1 14/8/1
f 13/1/2 5/2/2 19/2/2 23/1/2
f 106/9/3 102/10/3 4/5/3
f 6/7/2 14/8/2 24/8/2 20/7/2
f 15/3/3 7/4/3 21/4/3 25/3/3
f 8/5/3 16/6/3 26/6/3 22/5/3
f 3/4/4 57/4/4 21/4/4 7/4/4
f 22/5/3 95/11/3 8/5/3
f 82/5/3 83/6/3 36/6/3 32/5/3
f 2/7/4 6/7/4 20/7/4 58/7/4
f 85/1/2 86/2/2 29/2/2 33/1/2
f 97/11/3 82/5/3 32/5/3 96/11/3
f 88/8/2 85/1/2 33/1/2 34/8/2
f 89/3/3 81/4/3 31/4/3 35/3/3
f 83/6/3 89/3/3 35/3/3 36/6/3
f 101/12/2 90/13/2 27/13/2 100/14/2
f 84/7/2 88/8/2 34/8/2 30/7/2
f 23/1/5 24/8/5 40/8/5 39/1/5
f 14/8/1 13/1/1 37/1/1 38/8/1
f 13/1/6 23/1/6 39/1/6 37/1/6
f 24/8/4 14/8/4 38/8/4 40/8/4
f 16/6/1 15/3/1 41/3/1 42/6/1
f 15/3/4 25/3/4 43/3/4 41/3/4
f 26/6/6 16/6/6 42/6/6 44/6/6
f 25/3/5 26/6/5 44/6/5 43/3/5
f 70/15/1 72/16/1 12/6/1 4/5/1
f 72/16/1 74/17/1 11/3/1 12/6/1
f 74/17/1 76/18/1 3/4/1 11/3/1
f 47/1/4 45/2/4 51/2/4 53/1/4
f 46/7/4 48/8/4 54/8/4 52/7/4
f 49/19/6 116/20/6 114/19/6 118/19/6
f 50/19/6 119/19/6 115/19/6 117/21/6
f 75/22/4 2/7/4 58/7/4 77/22/4
f 53/1/5 54/8/5 62/8/5 61/1/5
f 48/8/1 47/1/1 59/1/1 60/8/1
f 47/1/2 53/1/2 61/1/2 59/1/2
f 54/8/3 48/8/3 60/8/3 62/8/3
f 50/6/1 49/3/1 63/3/1 64/6/1
f 49/3/3 55/3/3 65/3/3 63/3/3
f 56/6/2 50/6/2 64/6/2 66/6/2
f 55/3/5 56/6/5 66/6/5 65/3/5
f 94/22/4 91/7/4 68/7/4 79/22/4
f 91/7/4 84/7/4 30/7/4 68/7/4
f 81/4/4 92/4/4 67/4/4 31/4/4
f 92/4/4 93/23/4 80/18/4 67/4/4
f 48/8/1 80/19/1 79/19/1 47/1/1
f 3/4/4 76/18/4 78/18/4 57/4/4
f 76/18/4 75/22/4 77/22/4 78/18/4
f 10/8/1 2/7/1 75/22/1 73/24/1
f 73/24/1 75/22/1 76/18/1 74/17/1
f 9/1/1 10/8/1 73/24/1 71/25/1
f 71/25/1 73/24/1 74/17/1 72/16/1
f 1/2/1 9/1/1 71/25/1 69/26/1
f 69/26/1 71/25/1 72/16/1 70/15/1
f 78/18/4 77/22/4 94/22/4 93/23/4
f 57/4/4 78/18/4 93/23/4 92/4/4
f 21/4/4 57/4/4 92/4/4 81/4/4
f 58/7/4 20/7/4 84/7/4 91/7/4
f 77/22/4 58/7/4 91/7/4 94/22/4
f 20/7/2 24/8/2 88/8/2 84/7/2
f 99/14/2 17/13/2 90/13/2 101/12/2
f 26/6/3 25/3/3 89/3/3 83/6/3
f 25/3/3 21/4/3 81/4/3 89/3/3
f 24/8/2 23/1/2 85/1/2 88/8/2
f 95/11/3 22/5/3 82/5/3 97/11/3
f 23/1/2 19/2/2 86/2/2 85/1/2
f 22/5/3 26/6/3 83/6/3 82/5/3
f 18/27/3 95/11/3 97/11/3 87/27/3
f 87/27/3 97/11/3 96/11/3 28/27/3
f 106/9/1 95/11/1 18/27/1 110/28/1
f 19/2/2 99/14/2 101/12/2 86/2/2
f 86/2/2 101/12/2 100/14/2 29/2/2
f 5/2/2 98/14/2 99/14/2 19/2/2
f 99/14/1 109/29/1 113/30/1 17/13/1
f 109/29/1 108/31/1 112/21/1 113/30/1
f 108/31/1 107/32/1 111/20/1 112/21/1
f 107/32/1 106/9/1 110/28/1 111/20/1
f 98/14/6 105/29/6 109/29/6 99/14/6
f 105/29/6 104/31/6 108/31/6 109/29/6
f 104/31/6 103/32/6 107/32/6 108/31/6
f 103/32/6 102/10/6 106/9/6 107/32/6
f 5/2/1 1/2/1 105/29/1 98/14/1
f 1/2/1 69/26/1 104/31/1 105/29/1
f 69/26/1 70/15/1 103/32/1 104/31/1
f 70/15/1 4/5/1 102/10/1 103/32/1
f 4/5/7 8/5/7 95/11/7 106/9/7
f 90/13/6 17/13/6 113/30/6 115/19/6
f 87/27/6 114/19/6 110/28/6 18/27/6
f 112/21/6 111/20/6 116/20/6 117/21/6
f 112/21/6 117/21/6 115/19/6 113/30/6
f 111/20/6 110/28/6 114/19/6 116/20/6
f 28/27/8 118/19/8 114/19/8 87/27/8
f 50/19/3 117/21/3 94/22/3 79/22/3
f 49/19/2 80/18/2 93/23/2 116/20/2
f 27/13/6 90/13/6 115/19/6 119/19/6
f 79/19/1 80/19/1 49/19/1 50/6/1
f 94/22/5 117/21/5 116/20/5 93/23/5
f 33/1/2 29/2/2 122/2/2 126/1/2
f 118/19/6 28/27/6 121/27/6 132/19/6
f 35/3/3 31/4/3 124/4/3 128/3/3
f 28/27/3 96/11/3 130/11/3 121/27/3
f 29/2/2 100/14/2 131/14/2 122/2/2
f 100/14/2 27/13/2 120/13/2 131/14/2
f 27/13/6 119/19/6 133/19/6 120/13/6
f 34/8/2 33/1/2 126/1/2 127/8/2
f 32/5/3 36/6/3 129/6/3 125/5/3
f 30/7/2 34/8/2 127/8/2 123/7/2
f 96/11/3 32/5/3 125/5/3 130/11/3
f 36/6/3 35/3/3 128/3/3 129/6/3
f 119/19/6 50/6/6 56/6/6 133/19/6
f 118/19/6 132/19/6 55/3/6 49/3/6
f 47/1/1 79/19/1 68/7/1 45/2/1
f 46/7/1 67/4/1 80/18/1 48/8/1
f 135/19/1 45/2/1 68/7/1 30/7/1
f 134/19/1 31/4/1 67/4/1 46/7/1
f 51/2/4 45/2/4 135/19/4 137/19/4
f 123/7/2 137/19/2 135/19/2 30/7/2
f 52/7/4 136/19/4 134/19/4 46/7/4
f 124/4/3 31/4/3 134/19/3 136/19/3
