# Blender 4.5.1 LTS
# www.blender.org
mtllib x_corridor.mtl
o Plane
v -4.000000 0.296575 4.000000
v 4.000000 0.296575 4.000000
v -4.000000 0.296575 -4.000000
v 4.000000 0.296575 -4.000000
v -4.000000 0.296576 7.600000
v 4.000000 0.296576 7.600000
v -4.000000 0.296574 -7.600000
v 4.000000 0.296574 -7.600000
v -7.600000 0.296575 4.000000
v 7.600000 0.296575 4.000000
v -7.600000 0.296575 -4.000000
v 7.600000 0.296575 -4.000000
v -4.000000 -2.103425 -1.866668
v -4.000000 -2.103425 1.866668
v 4.000000 -2.103425 1.866668
v 4.000000 -2.103425 -1.866668
v -7.600000 -2.103425 -1.866668
v -7.600000 -2.103425 1.866668
v 7.600000 -2.103425 1.866668
v 7.600000 -2.103425 -1.866668
v -1.866668 -2.103425 4.000000
v 1.866668 -2.103425 4.000000
v 1.866668 -2.103425 -4.000000
v -1.866668 -2.103425 -4.000000
v -1.866668 -2.103425 7.600000
v 1.866668 -2.103425 7.600000
v 1.866668 -2.103426 -7.600000
v -1.866668 -2.103426 -7.600000
v 1.866668 -2.103425 1.866668
v -1.866668 -2.103425 1.866668
v 1.866668 -2.103425 -1.866668
v -1.866668 -2.103425 -1.866668
v -4.000000 -2.103425 -0.995556
v -4.000000 -2.103425 0.995556
v 4.000000 -2.103425 0.995556
v 4.000000 -2.103425 -0.995556
v -7.600000 -2.103425 -0.995556
v -7.600000 -2.103425 0.995556
v 7.600000 -2.103425 0.995556
v 7.600000 -2.103425 -0.995556
v -1.866668 -2.103425 0.995556
v -1.866668 -2.103425 -0.995556
v 1.866668 -2.103425 0.995556
v 1.866668 -2.103425 -0.995556
v -0.995556 -2.103425 4.000000
v 0.995556 -2.103425 4.000000
v 0.995556 -2.103425 -4.000000
v -0.995556 -2.103425 -4.000000
v -0.995556 -2.103425 7.600000
v 0.995556 -2.103425 7.600000
v 0.995556 -2.103426 -7.600000
v -0.995556 -2.103426 -7.600000
v 0.995556 -2.103425 1.866668
v -0.995556 -2.103425 1.866668
v 0.995556 -2.103425 -1.866668
v -0.995556 -2.103425 -1.866668
v 0.995556 -2.103425 0.995556
v -0.995556 -2.103425 0.995556
v 0.995556 -2.103425 -0.995556
v -0.995556 -2.103425 -0.995556
v -4.000000 1.080995 4.000000
v 4.000000 1.080995 4.000000
v -4.000000 1.080994 -4.000000
v 4.000000 1.080994 -4.000000
v -4.000000 1.080995 7.600000
v 4.000000 1.080995 7.600000
v -4.000000 1.080994 -7.600000
v 4.000000 1.080994 -7.600000
v -7.600000 1.080995 4.000000
v 7.600000 1.080995 4.000000
v -7.600000 1.080994 -4.000000
v 7.600000 1.080994 -4.000000
v -7.600000 1.080995 -1.866668
v -7.600000 1.080995 1.866668
v 7.600000 1.080995 1.866668
v 7.600000 1.080995 -1.866668
v -1.866668 1.080995 7.600000
v 1.866668 1.080995 7.600000
v 1.866668 1.080994 -7.600000
v -1.866668 1.080994 -7.600000
v -7.600000 1.080995 -0.995556
v -7.600000 1.080995 0.995556
v 7.600000 1.080995 0.995556
v 7.600000 1.080995 -0.995556
v -0.995556 1.080995 7.600000
v 0.995556 1.080995 7.600000
v 0.995556 1.080994 -7.600000
v -0.995556 1.080994 -7.600000
v -4.000000 5.480996 4.000000
v 4.000000 5.480996 4.000000
v -4.000000 5.480995 -4.000000
v 4.000000 5.480995 -4.000000
v -4.000000 5.480996 7.599999
v 4.000000 5.480996 7.599999
v -4.000000 5.480995 -7.600000
v 4.000000 5.480995 -7.600000
v -7.600000 5.480996 4.000000
v 7.600000 5.480996 4.000000
v -7.600000 5.480995 -4.000000
v 7.600000 5.480995 -4.000000
v -7.600000 5.480995 -1.866668
v -7.600000 5.480995 1.866668
v 7.600000 5.480995 1.866668
v 7.600000 5.480995 -1.866668
v -1.866668 5.480996 7.599999
v 1.866668 5.480996 7.599999
v 1.866668 5.480995 -7.600000
v -1.866668 5.480995 -7.600000
v -7.600000 5.480995 -0.995556
v -7.600000 5.480995 0.995556
v 7.600000 5.480995 0.995556
v 7.600000 5.480995 -0.995556
v -0.995556 5.480996 7.599999
v 0.995556 5.480996 7.599999
v 0.995556 5.480995 -7.600000
v -0.995556 5.480995 -7.600000
v -8.000000 -2.103425 -0.995556
v -8.000000 -2.103425 0.995556
v -8.000000 1.080995 -0.995556
v -8.000000 1.080995 0.995556
v 8.000000 -2.103425 0.995556
v 8.000000 -2.103425 -0.995556
v 8.000000 1.080995 0.995556
v 8.000000 1.080995 -0.995556
v -0.995556 -2.103424 8.000000
v 0.995556 -2.103424 8.000000
v -0.995556 1.080995 8.000000
v 0.995556 1.080995 8.000000
v 0.995556 -2.103426 -8.000000
v -0.995556 -2.103426 -8.000000
v 0.995556 1.080994 -8.000000
v -0.995556 1.080994 -8.000000
vn 0.7474 0.6644 -0.0000
vn -0.7474 0.6644 -0.0000
vn -0.0000 0.6644 -0.7474
vn -0.0000 0.6644 0.7474
vn -0.0000 1.0000 -0.0000
vn -0.0000 -0.0000 -1.0000
vn -0.0000 -0.0000 1.0000
vn 1.0000 -0.0000 -0.0000
vn -1.0000 -0.0000 -0.0000
vn -0.0000 -1.0000 -0.0000
vt 0.333333 1.000000
vt 0.000000 1.000000
vt 0.333333 0.666667
vt 0.666667 1.000000
vt 1.000000 1.000000
vt 0.333333 0.000000
vt 0.000000 0.000000
vt 1.000000 0.333333
vt 1.000000 0.000000
vt 0.000000 0.666667
vt 0.000000 0.333333
vt 0.000000 0.555555
vt 1.000000 0.666667
vt 1.000000 0.444444
vt 0.666667 0.555556
vt 1.000000 0.555556
vt 0.666667 0.666667
vt 0.333333 0.555556
vt 0.555555 0.555556
vt 0.555555 0.666667
vt 0.333333 0.333333
vt 0.555556 0.000000
vt 0.666667 0.000000
vt 0.666667 0.333333
vt 0.555555 0.333333
vt 0.444444 0.000000
vt 0.555555 1.000000
vt 0.666667 0.444444
vt 0.555555 0.444444
vt 0.333333 0.444444
vt 0.000000 0.444444
vt 0.444444 0.444444
vt 0.444444 0.555556
vt 0.444444 0.333333
vt 0.444444 0.666667
vt 0.444444 1.000000
s 1
f 24/1/1 3/2/1 32/3/1
f 23/4/2 4/5/2 8/5/2 27/4/2
f 21/6/1 1/7/1 5/7/1 25/6/1
f 15/8/3 2/9/3 10/9/3 19/8/3
f 13/10/4 3/2/4 11/2/4 17/10/4
f 1/7/3 14/11/3 18/11/3 9/7/3
f 33/12/5 13/10/5 17/10/5 37/12/5
f 4/5/4 16/13/4 20/13/4 12/5/4
f 35/14/5 15/8/5 19/8/5 39/14/5
f 13/10/4 32/3/4 3/2/4
f 44/15/5 36/16/5 16/13/5 31/17/5
f 33/12/5 42/18/5 32/3/5 13/10/5
f 59/19/5 44/15/5 31/17/5 55/20/5
f 14/11/3 1/7/3 30/21/3
f 46/22/5 22/23/5 29/24/5 53/25/5
f 2/9/2 22/23/2 26/23/2 6/9/2
f 45/26/5 21/6/5 25/6/5 49/26/5
f 3/2/1 24/1/1 28/1/1 7/2/1
f 47/27/5 23/4/5 27/4/5 51/27/5
f 21/6/1 30/21/1 1/7/1
f 55/20/5 31/17/5 23/4/5 47/27/5
f 23/4/2 31/17/2 4/5/2
f 4/5/4 31/17/4 16/13/4
f 15/8/3 29/24/3 2/9/3
f 2/9/2 29/24/2 22/23/2
f 53/25/5 29/24/5 43/28/5 57/29/5
f 57/29/5 43/28/5 44/15/5 59/19/5
f 14/11/5 30/21/5 41/30/5 34/31/5
f 34/31/5 41/30/5 42/18/5 33/12/5
f 29/24/5 15/8/5 35/14/5 43/28/5
f 43/28/5 35/14/5 36/16/5 44/15/5
f 16/13/5 36/16/5 40/16/5 20/13/5
f 36/16/5 35/14/5 39/14/5 40/16/5
f 14/11/5 34/31/5 38/31/5 18/11/5
f 34/31/5 33/12/5 37/12/5 38/31/5
f 41/30/5 58/32/5 60/33/5 42/18/5
f 58/32/5 57/29/5 59/19/5 60/33/5
f 30/21/5 54/34/5 58/32/5 41/30/5
f 54/34/5 53/25/5 57/29/5 58/32/5
f 32/3/5 56/35/5 48/36/5 24/1/5
f 56/35/5 55/20/5 47/27/5 48/36/5
f 24/1/5 48/36/5 52/36/5 28/1/5
f 48/36/5 47/27/5 51/27/5 52/36/5
f 22/23/5 46/22/5 50/22/5 26/23/5
f 46/22/5 45/26/5 49/26/5 50/22/5
f 21/6/5 45/26/5 54/34/5 30/21/5
f 45/26/5 46/22/5 53/25/5 54/34/5
f 42/18/5 60/33/5 56/35/5 32/3/5
f 60/33/5 59/19/5 55/20/5 56/35/5
f 1/7/6 9/7/6 69/7/6 61/7/6
f 49/26/6 25/6/6 77/6/6 85/26/6
f 11/2/7 3/2/7 63/2/7 71/2/7
f 51/27/7 27/4/7 79/4/7 87/27/7
f 6/9/6 26/23/6 78/23/6 66/9/6
f 7/2/7 28/1/7 80/1/7 67/2/7
f 3/2/8 7/2/8 67/2/8 63/2/8
f 37/12/8 17/10/8 73/10/8 81/12/8
f 17/10/8 11/2/8 71/2/8 73/10/8
f 8/5/9 4/5/9 64/5/9 68/5/9
f 25/6/6 5/7/6 65/7/6 77/6/6
f 18/11/8 38/31/8 82/31/8 74/11/8
f 2/9/9 6/9/9 66/9/9 62/9/9
f 26/23/6 50/22/6 86/22/6 78/23/6
f 39/14/9 19/8/9 75/8/9 83/14/9
f 19/8/9 10/9/9 70/9/9 75/8/9
f 5/7/8 1/7/8 61/7/8 65/7/8
f 27/4/7 8/5/7 68/5/7 79/4/7
f 20/13/9 40/16/9 84/16/9 76/13/9
f 9/7/8 18/11/8 74/11/8 69/7/8
f 28/1/7 52/36/7 88/36/7 80/1/7
f 12/5/9 20/13/9 76/13/9 72/5/9
f 4/5/7 12/5/7 72/5/7 64/5/7
f 10/9/6 2/9/6 62/9/6 70/9/6
f 66/9/6 78/23/6 106/23/6 94/9/6
f 88/36/7 87/27/7 115/27/7 116/36/7
f 75/8/9 70/9/9 98/9/9 103/8/9
f 67/2/7 80/1/7 108/1/7 95/2/7
f 76/13/9 84/16/9 112/16/9 104/13/9
f 63/2/8 67/2/8 95/2/8 91/2/8
f 77/6/6 65/7/6 93/7/6 105/6/6
f 68/5/9 64/5/9 92/5/9 96/5/9
f 78/23/6 86/22/6 114/22/6 106/23/6
f 62/9/9 66/9/9 94/9/9 90/9/9
f 79/4/7 68/5/7 96/5/7 107/4/7
f 65/7/8 61/7/8 89/7/8 93/7/8
f 80/1/7 88/36/7 116/36/7 108/1/7
f 69/7/8 74/11/8 102/11/8 97/7/8
f 81/12/8 73/10/8 101/10/8 109/12/8
f 72/5/9 76/13/9 104/13/9 100/5/9
f 82/31/8 81/12/8 109/12/8 110/31/8
f 64/5/7 72/5/7 100/5/7 92/5/7
f 83/14/9 75/8/9 103/8/9 111/14/9
f 70/9/6 62/9/6 90/9/6 98/9/6
f 84/16/9 83/14/9 111/14/9 112/16/9
f 61/7/6 69/7/6 97/7/6 89/7/6
f 85/26/6 77/6/6 105/6/6 113/26/6
f 71/2/7 63/2/7 91/2/7 99/2/7
f 86/22/6 85/26/6 113/26/6 114/22/6
f 73/10/8 71/2/8 99/2/8 101/10/8
f 87/27/7 79/4/7 107/4/7 115/27/7
f 74/11/8 82/31/8 110/31/8 102/11/8
f 81/12/10 82/31/10 120/31/10 119/12/10
f 38/31/5 37/12/5 117/12/5 118/31/5
f 37/12/7 81/12/7 119/12/7 117/12/7
f 82/31/6 38/31/6 118/31/6 120/31/6
f 40/16/5 39/14/5 121/14/5 122/16/5
f 39/14/6 83/14/6 123/14/6 121/14/6
f 84/16/7 40/16/7 122/16/7 124/16/7
f 83/14/10 84/16/10 124/16/10 123/14/10
f 50/22/5 49/26/5 125/26/5 126/22/5
f 49/26/8 85/26/8 127/26/8 125/26/8
f 85/26/10 86/22/10 128/22/10 127/26/10
f 86/22/9 50/22/9 126/22/9 128/22/9
f 52/36/5 51/27/5 129/27/5 130/36/5
f 88/36/8 52/36/8 130/36/8 132/36/8
f 51/27/9 87/27/9 131/27/9 129/27/9
f 87/27/10 88/36/10 132/36/10 131/27/10
